<?xml version="1.0" standalone="no"?><!DOCTYPE svg PUBLIC "-//W3C//DTD SVG 1.1//EN" "http://www.w3.org/Graphics/SVG/1.1/DTD/svg11.dtd"><svg class="icon" width="10px" height="10.00px" viewBox="0 0 1024 1024" version="1.1" xmlns="http://www.w3.org/2000/svg"><path d="M188.1 679.2c-14.9-12.2-17.1-34.1-4.9-48.9 12.2-14.9 34.1-17.1 48.9-4.9L487 834c14.9 12.2 17.1 34.1 4.9 48.9-12.2 14.9-34.1 17.1-48.9 4.9L188.1 679.2z m740.4-200.7c19.2 0 34.8 15.6 34.8 34.8 0 19.2-15.6 34.8-34.8 34.8H94.2c-32.5 0-47.2-40.7-22.3-61.5l417.2-347.7c14.8-12.3 36.7-10.3 49 4.5 12.3 14.8 10.3 36.7-4.5 49L190.2 478.5h738.3z" fill="#333333" /></svg>